<svg width="660" height="400" viewBox="0 0 660 400" fill="none" xmlns="http://www.w3.org/2000/svg">
  <defs>
    <radialGradient id="g1" cx="72%" cy="12%" r="70%">
      <stop offset="0%" stop-color="#8b7cf6" stop-opacity="0.28"/>
      <stop offset="55%" stop-color="#8b7cf6" stop-opacity="0.07"/>
      <stop offset="100%" stop-color="#8b7cf6" stop-opacity="0"/>
    </radialGradient>
    <linearGradient id="ground" x1="0" y1="0" x2="0" y2="1">
      <stop offset="0%" stop-color="#161a22"/>
      <stop offset="100%" stop-color="#0e1014"/>
    </linearGradient>
  </defs>

  <rect width="660" height="400" fill="#0e1014"/>
  <rect width="660" height="400" fill="url(#g1)"/>
  <path d="M0 330q200-40 400-16t260 30V400H0v-70z" fill="url(#ground)"/>

  <!-- wordmark -->
  <g transform="translate(36 30)">
    <rect width="46" height="46" rx="11" fill="#161a22" stroke="#8b7cf6" stroke-opacity="0.35" stroke-width="1.5"/>
    <path d="M14 34v-9.8a9 9 0 0 1 18 0V34" stroke="#8b7cf6" stroke-width="2.6" stroke-linecap="round"/>
    <path d="M11 34h24" stroke="#8b7cf6" stroke-width="2.6" stroke-linecap="round"/>
    <circle cx="23" cy="24.2" r="3.1" fill="#8b7cf6"/>
    <path d="M23 26.6l-2.2 7h4.4l-2.2-7z" fill="#8b7cf6"/>
  </g>
  <text x="96" y="52" font-family="-apple-system, 'SF Pro Display', 'Helvetica Neue', sans-serif" font-size="26" font-weight="700" fill="#e8eaf0">Private Room</text>
  <text x="96" y="72" font-family="-apple-system, 'SF Pro Text', 'Helvetica Neue', sans-serif" font-size="13" fill="#8b93a7">A private AI workspace sealed inside a single file.</text>

  <!-- drag hint arrow between icon wells -->
  <g stroke="#8b93a7" stroke-width="3" stroke-linecap="round" opacity="0.8">
    <path d="M250 232h150"/>
    <path d="M385 218l17 14-17 14" fill="none" stroke-linejoin="round"/>
  </g>

  <text x="330" y="366" text-anchor="middle" font-family="-apple-system, 'SF Pro Text', 'Helvetica Neue', sans-serif" font-size="12" fill="#8b93a7" opacity="0.85">Drag Private Room into Applications to install</text>
</svg>
