<svg width="660" height="400" viewBox="0 0 660 400" fill="none" xmlns="http://www.w3.org/2000/svg">
  <defs>
    <radialGradient id="g1" cx="72%" cy="12%" r="70%">
      <stop offset="0%" stop-color="#8b7cf6" stop-opacity="0.28"/>
      <stop offset="55%" stop-color="#8b7cf6" stop-opacity="0.07"/>
      <stop offset="100%" stop-color="#8b7cf6" stop-opacity="0"/>
    </radialGradient>
    <linearGradient id="ground" x1="0" y1="0" x2="0" y2="1">
      <stop offset="0%" stop-color="#161a22"/>
      <stop offset="100%" stop-color="#0e1014"/>
    </linearGradient>
  </defs>

  <rect width="660" height="400" fill="#0e1014"/>
  <rect width="660" height="400" fill="url(#g1)"/>
  <path d="M0 330q200-40 400-16t260 30V400H0v-70z" fill="url(#ground)"/>

  <!-- wordmark -->
  <g transform="translate(36 30)">
    <rect width="46" height="46" rx="11" fill="#161a22" stroke="#8b7cf6" stroke-opacity="0.35" stroke-width="1.5"/>
    <g transform="translate(11 8) scale(0.0545)">
      <g transform="translate(-292 -263)">
        <path d="M375 623 L654 710 Q668 715 661 730 L635 778 Q628 790 614 784 L345 682 Z" fill="#9d80d8"/>
        <path d="M507 279 Q523 263 541 274 Q550 279 557 294 L731 739 Q738 757 727 772 L702 800 Q692 812 677 805 L637 785 L470 337 Q463 319 473 304 Z" fill="#7857b0"/>
        <path d="M494 277 Q507 264 524 269 Q542 275 548 292 Q552 303 546 318 L381 737 Q376 749 387 758 L365 797 Q356 813 339 810 Q331 809 323 801 L304 781 Q292 769 298 750 L479 308 Q484 288 494 277 Z" fill="#c3acf2"/>
        <path d="M672 781 L707 785" stroke="#dfbc72" stroke-width="11" stroke-linecap="round"/>
        <circle cx="672" cy="781" r="5" fill="#fff0b5"/>
      </g>
    </g>
  </g>
  <text x="96" y="52" font-family="-apple-system, 'SF Pro Display', 'Helvetica Neue', sans-serif" font-size="26" font-weight="700" fill="#e8eaf0">Arcelle</text>
  <text x="96" y="72" font-family="-apple-system, 'SF Pro Text', 'Helvetica Neue', sans-serif" font-size="13" fill="#8b93a7">A private AI workspace sealed inside a single file.</text>

  <!-- drag hint arrow between icon wells -->
  <g stroke="#8b93a7" stroke-width="3" stroke-linecap="round" opacity="0.8">
    <path d="M250 232h150"/>
    <path d="M385 218l17 14-17 14" fill="none" stroke-linejoin="round"/>
  </g>

  <text x="330" y="366" text-anchor="middle" font-family="-apple-system, 'SF Pro Text', 'Helvetica Neue', sans-serif" font-size="12" fill="#8b93a7" opacity="0.85">Drag Arcelle into Applications to install</text>
</svg>
