<svg width="1600" height="1000" viewBox="0 0 1600 1000" fill="none" xmlns="http://www.w3.org/2000/svg">
  <defs>
    <filter id="windowShadow" x="-10%" y="-10%" width="120%" height="130%">
      <feDropShadow dx="0" dy="22" stdDeviation="36" flood-color="#0D1B18" flood-opacity="0.18"/>
    </filter>
    <linearGradient id="top" x1="66" y1="70" x2="1534" y2="162" gradientUnits="userSpaceOnUse">
      <stop stop-color="#172724"/>
      <stop offset="1" stop-color="#10201E"/>
    </linearGradient>
  </defs>
  <rect width="1600" height="1000" fill="#E8E3D8"/>
  <text x="68" y="46" fill="#4B5E58" font-family="-apple-system, BlinkMacSystemFont, 'Segoe UI', sans-serif" font-size="16" font-weight="700" letter-spacing="2.2">OWNFOLD · PRODUCT UI DIRECTION · LIGHT MODE</text>

  <g filter="url(#windowShadow)">
    <rect x="66" y="70" width="1468" height="866" rx="28" fill="#F7F4EC"/>
  </g>
  <path d="M66 98C66 82.536 78.536 70 94 70H1506C1521.46 70 1534 82.536 1534 98V164H66V98Z" fill="url(#top)"/>
  <circle cx="100" cy="116" r="7" fill="#D86F62"/>
  <circle cx="124" cy="116" r="7" fill="#D8A746"/>
  <circle cx="148" cy="116" r="7" fill="#66A878"/>

  <!-- Top identity -->
  <path d="M194 94H226V108H211V136H226V150H194V94Z" fill="#F5F1E8"/>
  <path d="M215 94H247V150H215V136H230V108H215V94Z" fill="#6DB5A8"/>
  <text x="264" y="120" fill="#FFFDF8" font-family="-apple-system, BlinkMacSystemFont, 'Segoe UI', sans-serif" font-size="18" font-weight="700">Client case</text>
  <text x="264" y="144" fill="#90A29D" font-family="-apple-system, BlinkMacSystemFont, 'Segoe UI', sans-serif" font-size="13">Ownfold workspace</text>
  <rect x="1128" y="96" width="242" height="40" rx="20" fill="#233A35" stroke="#35534B"/>
  <circle cx="1152" cy="116" r="5" fill="#70C797"/>
  <text x="1167" y="121" fill="#DCE9E5" font-family="-apple-system, BlinkMacSystemFont, 'Segoe UI', sans-serif" font-size="14" font-weight="600">Local · stays on this Mac</text>
  <rect x="1386" y="96" width="112" height="40" rx="12" fill="#2D4640"/>
  <path d="M1410 111v12h13v-12h-13zm3-1v-3a4 4 0 0 1 8 0v3" stroke="#E8F4F0" stroke-width="1.8" stroke-linecap="round" stroke-linejoin="round"/>
  <text x="1432" y="121" fill="#F2F7F5" font-family="-apple-system, BlinkMacSystemFont, 'Segoe UI', sans-serif" font-size="14" font-weight="650">Lock</text>

  <!-- Left rail -->
  <rect x="66" y="164" width="250" height="772" fill="#EEF0E9"/>
  <line x1="316" y1="164" x2="316" y2="936" stroke="#D8D9D1"/>
  <text x="94" y="210" fill="#5C6D68" font-family="-apple-system, BlinkMacSystemFont, 'Segoe UI', sans-serif" font-size="12" font-weight="750" letter-spacing="1.8">FILES</text>
  <rect x="94" y="228" width="194" height="38" rx="10" fill="#FFFFFF" stroke="#D5D8D0"/>
  <circle cx="116" cy="247" r="6" stroke="#6B7A76" stroke-width="1.7"/>
  <path d="M120 251l5 5" stroke="#6B7A76" stroke-width="1.7" stroke-linecap="round"/>
  <text x="136" y="252" fill="#7B8884" font-family="-apple-system, BlinkMacSystemFont, 'Segoe UI', sans-serif" font-size="14">Search files</text>

  <rect x="94" y="282" width="92" height="36" rx="10" fill="#2F756C"/>
  <path d="M112 300h13m-6.5-6.5v13" stroke="#FFFFFF" stroke-width="1.8" stroke-linecap="round"/>
  <text x="134" y="305" fill="#FFFFFF" font-family="-apple-system, BlinkMacSystemFont, 'Segoe UI', sans-serif" font-size="14" font-weight="650">Add</text>
  <rect x="196" y="282" width="92" height="36" rx="10" fill="#E0E7E2"/>
  <path d="M214 296h15v11h-15zM217 293h9v3" stroke="#36564F" stroke-width="1.6"/>
  <text x="238" y="305" fill="#36564F" font-family="-apple-system, BlinkMacSystemFont, 'Segoe UI', sans-serif" font-size="14" font-weight="650">Map</text>

  <text x="94" y="356" fill="#82908C" font-family="-apple-system, BlinkMacSystemFont, 'Segoe UI', sans-serif" font-size="11" font-weight="700" letter-spacing="1.4">RECENT</text>
  <rect x="82" y="370" width="222" height="56" rx="12" fill="#DDEAE5"/>
  <rect x="94" y="382" width="26" height="32" rx="5" fill="#FFFFFF" stroke="#B9C8C3"/>
  <path d="M113 382v8h7" stroke="#6D9288" stroke-width="1.4"/>
  <text x="132" y="396" fill="#20312D" font-family="-apple-system, BlinkMacSystemFont, 'Segoe UI', sans-serif" font-size="14" font-weight="650">Matter summary</text>
  <text x="132" y="415" fill="#70807B" font-family="-apple-system, BlinkMacSystemFont, 'Segoe UI', sans-serif" font-size="12">Markdown · 7 KB</text>

  <g fill="#51645E" font-family="-apple-system, BlinkMacSystemFont, 'Segoe UI', sans-serif" font-size="14">
    <text x="96" y="462">Contract.pdf</text>
    <text x="96" y="498">Meeting notes.docx</text>
    <text x="96" y="534">Evidence table.xlsx</text>
    <text x="96" y="570">Voice memo.m4a</text>
  </g>
  <line x1="94" y1="606" x2="288" y2="606" stroke="#D3D7D0"/>
  <text x="94" y="642" fill="#5C6D68" font-family="-apple-system, BlinkMacSystemFont, 'Segoe UI', sans-serif" font-size="12" font-weight="750" letter-spacing="1.5">REMEMBERED</text>
  <text x="94" y="674" fill="#64746F" font-family="-apple-system, BlinkMacSystemFont, 'Segoe UI', sans-serif" font-size="13">3 notes for the AI</text>
  <text x="94" y="898" fill="#48615A" font-family="-apple-system, BlinkMacSystemFont, 'Segoe UI', sans-serif" font-size="13" font-weight="650">Workspace settings</text>

  <!-- Document pane -->
  <rect x="316" y="164" width="794" height="772" fill="#FBFAF6"/>
  <line x1="1110" y1="164" x2="1110" y2="936" stroke="#D8D9D1"/>
  <text x="352" y="208" fill="#263832" font-family="-apple-system, BlinkMacSystemFont, 'Segoe UI', sans-serif" font-size="15" font-weight="700">Matter summary.md</text>
  <g fill="#687873" font-family="-apple-system, BlinkMacSystemFont, 'Segoe UI', sans-serif" font-size="13">
    <text x="794" y="208">Edit</text>
    <text x="840" y="208">History</text>
    <text x="908" y="208">Export</text>
    <text x="970" y="208">Close</text>
  </g>
  <line x1="316" y1="230" x2="1110" y2="230" stroke="#E2E1DA"/>
  <rect x="412" y="270" width="602" height="600" rx="8" fill="#FFFFFF" stroke="#E3E0D7"/>
  <text x="464" y="340" fill="#17231F" font-family="Georgia, 'Times New Roman', serif" font-size="34" font-weight="700">Matter summary</text>
  <text x="464" y="386" fill="#475852" font-family="-apple-system, BlinkMacSystemFont, 'Segoe UI', sans-serif" font-size="16">The contract renews on 30 September 2026.</text>
  <rect x="458" y="408" width="508" height="74" rx="10" fill="#FFF8F0" stroke="#E7C8AA"/>
  <rect x="474" y="425" width="28" height="24" rx="7" fill="#C87941"/>
  <text x="483" y="443" fill="#FFFFFF" font-family="Georgia, serif" font-size="17" font-weight="700">“</text>
  <text x="516" y="437" fill="#493326" font-family="-apple-system, BlinkMacSystemFont, 'Segoe UI', sans-serif" font-size="14" font-weight="650">Verified in Contract.pdf · page 8</text>
  <text x="516" y="460" fill="#715849" font-family="-apple-system, BlinkMacSystemFont, 'Segoe UI', sans-serif" font-size="13">Open the exact words</text>

  <text x="464" y="536" fill="#21312D" font-family="-apple-system, BlinkMacSystemFont, 'Segoe UI', sans-serif" font-size="20" font-weight="750">Main points</text>
  <g fill="#4B5A56" font-family="-apple-system, BlinkMacSystemFont, 'Segoe UI', sans-serif" font-size="15">
    <circle cx="472" cy="575" r="3" fill="#3C8D83"/><text x="488" y="580">The term is twelve months.</text>
    <circle cx="472" cy="611" r="3" fill="#3C8D83"/><text x="488" y="616">Notice must be sent sixty days before renewal.</text>
    <circle cx="472" cy="647" r="3" fill="#3C8D83"/><text x="488" y="652">Two payment clauses need review.</text>
  </g>
  <text x="464" y="718" fill="#21312D" font-family="-apple-system, BlinkMacSystemFont, 'Segoe UI', sans-serif" font-size="20" font-weight="750">Next step</text>
  <text x="464" y="756" fill="#4B5A56" font-family="-apple-system, BlinkMacSystemFont, 'Segoe UI', sans-serif" font-size="15">Compare the renewal clause with the signed addendum.</text>
  <rect x="464" y="792" width="174" height="40" rx="10" fill="#E2EEE9"/>
  <text x="490" y="817" fill="#2E635A" font-family="-apple-system, BlinkMacSystemFont, 'Segoe UI', sans-serif" font-size="14" font-weight="700">Compare files</text>

  <!-- AI pane -->
  <rect x="1110" y="164" width="424" height="772" fill="#F3F4EF"/>
  <text x="1140" y="208" fill="#263832" font-family="-apple-system, BlinkMacSystemFont, 'Segoe UI', sans-serif" font-size="15" font-weight="700">Ask this workspace</text>
  <text x="1458" y="208" fill="#697974" font-family="-apple-system, BlinkMacSystemFont, 'Segoe UI', sans-serif" font-size="13">New</text>
  <line x1="1110" y1="230" x2="1534" y2="230" stroke="#D8D9D1"/>

  <rect x="1140" y="264" width="348" height="54" rx="14" fill="#DCEAE5"/>
  <text x="1160" y="286" fill="#2B4B44" font-family="-apple-system, BlinkMacSystemFont, 'Segoe UI', sans-serif" font-size="14" font-weight="650">You</text>
  <text x="1160" y="307" fill="#334D47" font-family="-apple-system, BlinkMacSystemFont, 'Segoe UI', sans-serif" font-size="14">When does this contract renew?</text>

  <rect x="1140" y="338" width="348" height="188" rx="14" fill="#FFFFFF" stroke="#DDE0D9"/>
  <text x="1160" y="368" fill="#2F756C" font-family="-apple-system, BlinkMacSystemFont, 'Segoe UI', sans-serif" font-size="13" font-weight="750">OWNFOLD AI</text>
  <text x="1160" y="402" fill="#33413D" font-family="-apple-system, BlinkMacSystemFont, 'Segoe UI', sans-serif" font-size="15">It renews on 30 September 2026.</text>
  <text x="1160" y="430" fill="#33413D" font-family="-apple-system, BlinkMacSystemFont, 'Segoe UI', sans-serif" font-size="15">The notice deadline is 1 August.</text>
  <rect x="1160" y="460" width="218" height="38" rx="19" fill="#FFF3E8" stroke="#E8C6A8"/>
  <circle cx="1180" cy="479" r="10" fill="#C87941"/>
  <text x="1176" y="484" fill="#FFFFFF" font-family="Georgia, serif" font-size="13" font-weight="700">“</text>
  <text x="1198" y="484" fill="#6C472F" font-family="-apple-system, BlinkMacSystemFont, 'Segoe UI', sans-serif" font-size="13" font-weight="650">Contract.pdf · page 8</text>

  <rect x="1132" y="746" width="370" height="158" rx="18" fill="#FFFFFF" stroke="#CED5D0"/>
  <text x="1156" y="782" fill="#7B8884" font-family="-apple-system, BlinkMacSystemFont, 'Segoe UI', sans-serif" font-size="14">Ask about files, or tell the AI what to do…</text>
  <line x1="1156" y1="840" x2="1478" y2="840" stroke="#E0E2DC"/>
  <text x="1156" y="874" fill="#526661" font-family="-apple-system, BlinkMacSystemFont, 'Segoe UI', sans-serif" font-size="13" font-weight="650">Attach</text>
  <text x="1220" y="874" fill="#526661" font-family="-apple-system, BlinkMacSystemFont, 'Segoe UI', sans-serif" font-size="13" font-weight="650">Workflows</text>
  <circle cx="1468" cy="870" r="19" fill="#2F756C"/>
  <path d="M1461 870h12m-5-5 5 5-5 5" stroke="#FFFFFF" stroke-width="1.8" stroke-linecap="round" stroke-linejoin="round"/>
</svg>
