<svg width="1024" height="1024" viewBox="0 0 1024 1024" fill="none" xmlns="http://www.w3.org/2000/svg">
  <defs>
    <linearGradient id="tile" x1="180" y1="120" x2="840" y2="900" gradientUnits="userSpaceOnUse">
      <stop stop-color="#20332F"/>
      <stop offset="1" stop-color="#101A19"/>
    </linearGradient>
    <linearGradient id="paper" x1="246" y1="240" x2="528" y2="784" gradientUnits="userSpaceOnUse">
      <stop stop-color="#FFFDF7"/>
      <stop offset="1" stop-color="#DDD6C7"/>
    </linearGradient>
    <linearGradient id="green" x1="484" y1="238" x2="790" y2="790" gradientUnits="userSpaceOnUse">
      <stop stop-color="#8BC7BA"/>
      <stop offset="1" stop-color="#3C8D83"/>
    </linearGradient>
    <filter id="shadow" x="140" y="160" width="744" height="704" filterUnits="userSpaceOnUse" color-interpolation-filters="sRGB">
      <feDropShadow dx="0" dy="26" stdDeviation="28" flood-color="#07100F" flood-opacity="0.38"/>
    </filter>
  </defs>

  <rect x="84" y="84" width="856" height="856" rx="208" fill="url(#tile)"/>
  <rect x="91" y="91" width="842" height="842" rx="201" stroke="#8BC7BA" stroke-opacity="0.18" stroke-width="14"/>

  <!-- Two paper ribbons fold inward. Together they make an O without using a lock or shield. -->
  <g filter="url(#shadow)">
    <path d="M234 240H566V398H404V626H566V784H234V240Z" fill="url(#paper)"/>
    <path d="M458 240H790V784H458V626H620V398H458V240Z" fill="url(#green)"/>
    <path d="M404 398H566L500 464H404V398Z" fill="#C87941" fill-opacity="0.92"/>
    <path d="M458 626H620V560L554 626H458Z" fill="#B96838" fill-opacity="0.9"/>
  </g>
</svg>
